Coordinates
version=1
nRows=32
nColumns=22
inDegrees=yes

Units are S.I. units (second, meters, Newtons, ...)
If the header above contains a line with 'inDegrees', this indicates whether rotational values are in degrees (yes) or radians (no).

endheader
time	pelvis_tilt	pelvis_list	pelvis_rotation	pelvis_tx	pelvis_ty	pelvis_tz	hip_flexion_r	hip_adduction_r	hip_rotation_r	knee_angle_r	ankle_angle_r	subtalar_angle_r	hip_flexion_l	hip_adduction_l	hip_rotation_l	knee_angle_l	ankle_angle_l	subtalar_angle_l	lumbar_extension	lumbar_bending	lumbar_rotation
      3.94000000	     -7.23559796	     -7.87852607	     47.98103917	      0.54532239	      0.95029851	      0.23338237	     39.51989172	      2.44676951	     10.84152531	    -21.07274570	      7.25768247	      8.31424987	      7.86382514	      8.45472043	     14.04494535	    -31.57177684	     24.12318205	     -3.76529912	      2.62184905	      0.60886569	     -0.02747138
      3.95000000	     -6.87220530	     -7.87158855	     48.39582432	      0.55169266	      0.95062165	      0.22784922	     39.37089653	      2.73606131	     10.69356332	    -22.19271115	      6.47882094	      8.12129055	      7.33603845	      8.11963554	     14.11911574	    -32.03825527	     23.80516254	     -3.12657457	      2.51537829	      0.95981625	      0.05182093
      3.96000000	     -6.52849629	     -7.89412387	     48.79701956	      0.55798252	      0.95099561	      0.22216244	     39.25337568	      2.96876718	     10.34447357	    -23.29329922	      5.86624210	      7.96106439	      6.86743093	      7.79320863	     14.20018345	    -32.53456638	     23.37965405	     -2.74456039	      2.46408289	      1.34137572	      0.13314886
      3.97000000	     -6.18437292	     -7.85599273	     49.15104644	      0.56427986	      0.95152296	      0.21646686	     39.07140875	      3.15871506	      9.92686081	    -24.36421328	      5.46109293	      7.54703367	      6.39415001	      7.49028644	     14.14846722	    -33.07462694	     22.86739506	     -2.23382328	      2.35370827	      1.68557037	      0.23477547
      3.98000000	     -5.85115058	     -7.84405601	     49.50839520	      0.57050584	      0.95211692	      0.21073655	     38.86888032	      3.33028337	      9.43102195	    -25.35169150	      5.22822532	      6.97781302	      5.99486235	      7.17406757	     14.06860799	    -33.66767698	     22.27713357	     -1.76247352	      2.27821377	      2.04325213	      0.33114106
      3.99000000	     -5.53799247	     -7.84603108	     49.86814005	      0.57667536	      0.95278471	      0.20503030	     38.63061150	      3.49452619	      8.93496310	    -26.23878847	      5.15222690	      6.18714863	      5.67260110	      6.85029157	     13.93711825	    -34.31155672	     21.58494277	     -1.25766487	      2.22977334	      2.38867223	      0.41668734
      4.00000000	     -5.25601818	     -7.86540221	     50.23984510	      0.58277622	      0.95351233	      0.19935820	     38.36458018	      3.65236658	      8.46559586	    -27.02250138	      5.20668811	      5.18900463	      5.43755965	      6.52321228	     13.76392047	    -35.00019680	     20.78216048	     -0.70942164	      2.22155618	      2.70983311	      0.48402321
      4.01000000	     -5.01401775	     -7.89957173	     50.63116540	      0.58878599	      0.95429425	      0.19372220	     38.07926305	      3.79458894	      8.03020927	    -27.70795016	      5.36561997	      4.04145952	      5.29036173	      6.20217632	     13.56372866	    -35.72363870	     19.86102798	     -0.11505833	      2.25831909	      2.99451239	      0.52791779
      4.02000000	     -4.81046496	     -7.94166876	     51.07475250	      0.59463221	      0.95513606	      0.18808382	     37.78438078	      3.88946313	      7.57220568	    -28.32025683	      5.61132049	      2.88009586	      5.21947930	      5.89828188	     13.38550628	    -36.47168039	     18.82952888	      0.50478473	      2.33304129	      3.24013297	      0.50434673
      4.03000000	     -4.66461750	     -7.98631931	     51.49884440	      0.60042172	      0.95601403	      0.18253166	     37.47361782	      3.97863229	      7.24119180	    -28.83077552	      5.93051853	      1.63046895	      5.23184915	      5.61670347	     13.14186436	    -37.23919948	     17.67024309	      1.17970696	      2.45284849	      3.42308351	      0.51208354
      4.04000000	     -4.56058029	     -8.01717177	     51.98840459	      0.60597730	      0.95695211	      0.17695850	     37.16458467	      3.98275102	      6.84845163	    -29.31078491	      6.31716037	      0.55029486	      5.28989115	      5.37952543	     12.96426454	    -38.00676787	     16.40977260	      1.82830883	      2.58951970	      3.55131751	      0.42393055
      4.05000000	     -4.49371731	     -8.05927104	     52.45393062	      0.61146815	      0.95792151	      0.17145878	     36.83526797	      3.99288641	      6.56360233	    -29.68850705	      6.74859559	     -0.51258086	      5.40924058	      5.14574865	     12.74236945	    -38.77565254	     15.05734347	      2.51166728	      2.76446398	      3.64611725	      0.37799688
      4.06000000	     -4.46579093	     -8.08553757	     52.94604640	      0.61676549	      0.95891964	      0.16599577	     36.50837124	      3.93949879	      6.25961346	    -30.03787912	      7.21927574	     -1.38414291	      5.56767592	      4.95006116	     12.54807912	    -39.54446606	     13.63621668	      3.16579841	      2.94572804	      3.68874781	      0.28334263
      4.07000000	     -4.46913217	     -8.10997842	     53.43703127	      0.62190691	      0.95991646	      0.16060256	     36.18664586	      3.85356947	      5.96547543	    -30.34773487	      7.72081613	     -2.09497236	      5.77487012	      4.77186686	     12.34633377	    -40.32196094	     12.17664133	      3.80547071	      3.13878805	      3.69944819	      0.18544431
      4.08000000	     -4.49521430	     -8.13816758	     53.92205513	      0.62690483	      0.96089911	      0.15531929	     35.86878152	      3.74958628	      5.68988017	    -30.61401152	      8.22621438	     -2.66186521	      6.03950076	      4.59676404	     12.12294208	    -41.12536004	     10.70485440	      4.43381478	      3.33875780	      3.68753950	      0.08153238
      4.09000000	     -4.54105969	     -8.17629046	     54.40085644	      0.63175420	      0.96184576	      0.15015772	     35.56287116	      3.62847605	      5.40902558	    -30.84154618	      8.73123659	     -3.11191144	      6.37165325	      4.42013712	     11.87398061	    -41.96829297	      9.25478809	      5.05744194	      3.54801953	      3.65953018	     -0.01955363
      4.10000000	     -4.59270337	     -8.21033609	     54.88190678	      0.63643809	      0.96278363	      0.14512521	     35.24652288	      3.48784500	      5.11409790	    -31.02598074	      9.20416483	     -3.42265531	      6.75617775	      4.24288289	     11.60218781	    -42.86057598	      7.83662572	      5.59505002	      3.73955199	      3.61991742	     -0.14684297
      4.11000000	     -4.65371601	     -8.30031869	     55.31909445	      0.64103142	      0.96358602	      0.14028000	     34.98058318	      3.39113159	      4.84025265	    -31.17610376	      9.67957665	     -3.78270934	      7.25424134	      4.02818237	     11.26918082	    -43.82688837	      6.52582278	      6.31494190	      3.97656973	      3.60907347	     -0.19630941
      4.12000000	     -4.69662102	     -8.38009501	     55.76935512	      0.64546324	      0.96441321	      0.13557641	     34.67538920	      3.28595968	      4.53603011	    -31.26422331	     10.08414947	     -4.03874332	      7.79094274	      3.80131384	     10.91863666	    -44.85453243	      5.27099980	      6.93702792	      4.17319296	      3.60259452	     -0.29638003
      4.13000000	     -4.73038842	     -8.49698048	     56.17899703	      0.64981720	      0.96514741	      0.13106966	     34.38940839	      3.22889339	      4.24751248	    -31.30872307	     10.48383387	     -4.31442973	      8.41295874	      3.53823575	     10.51300285	    -45.95407388	      4.13249465	      7.70274939	      4.38444023	      3.62616163	     -0.32448770
      4.14000000	     -4.73909470	     -8.62379551	     56.57102256	      0.65406008	      0.96585478	      0.12673774	     34.08617514	      3.20629065	      3.96681063	    -31.30595177	     10.86454572	     -4.57584546	      9.08357792	      3.24421382	     10.07140828	    -47.11184077	      3.10817493	      8.55712046	      4.57090070	      3.67820161	     -0.31621012
      4.15000000	     -4.72099754	     -8.76197003	     56.94453382	      0.65822239	      0.96653646	      0.12259861	     33.76298910	      3.22506404	      3.69638570	    -31.24549302	     11.20775189	     -4.81638713	      9.80233485	      2.90863820	      9.58078419	    -48.31898020	      2.19624768	      9.49567181	      4.73425433	      3.75584366	     -0.29488807
      4.16000000	     -4.67292066	     -8.91896677	     57.30164238	      0.66229694	      0.96718171	      0.11865234	     33.43028610	      3.29291387	      3.43808171	    -31.13837665	     11.51396633	     -5.04634947	     10.57100457	      2.52329141	      9.04923393	    -49.56292104	      1.41739374	     10.55508401	      4.88067169	      3.86981124	     -0.24837498
      4.17000000	     -4.60312047	     -9.08184237	     57.63850961	      0.66630452	      0.96779798	      0.11489913	     33.08424588	      3.40025511	      3.20298835	    -30.98826305	     11.79683202	     -5.26811192	     11.37174308	      2.09481843	      8.46808160	    -50.81583942	      0.78041830	     11.73024247	      5.00293082	      3.99980323	     -0.18389079
      4.18000000	     -4.50137213	     -9.26269768	     57.96048822	      0.67023577	      0.96837139	      0.11133979	     32.73768839	      3.55792609	      2.97037650	    -30.80813145	     12.04413296	     -5.47232810	     12.20518865	      1.60868137	      7.85875262	    -52.06372601	      0.31304118	     12.94186545	      5.10728898	      4.16453179	     -0.08187979
      4.19000000	     -4.37582569	     -9.45501800	     58.26983757	      0.67407530	      0.96890210	      0.10795811	     32.39290811	      3.75494680	      2.75153699	    -30.60555967	     12.25996875	     -5.65965816	     13.05985861	      1.07726849	      7.23183351	    -53.27877103	      0.03814507	     14.11511189	      5.19410673	      4.35612019	      0.04594926
      4.20000000	     -4.24156275	     -9.64704760	     58.56657045	      0.67785597	      0.96941111	      0.10474178	     32.04508201	      3.97245057	      2.54441366	    -30.37620214	     12.46221046	     -5.83476161	     13.92070505	      0.51573742	      6.58386645	    -54.42692677	     -0.03541664	     15.16395952	      5.26561180	      4.54415794	      0.17860512
      4.21000000	     -4.08547649	     -9.83999357	     58.84762040	      0.68154255	      0.96990187	      0.10166520	     31.69676227	      4.21504725	      2.32580776	    -30.13232863	     12.60639764	     -5.97262879	     14.77337704	     -0.07808995	      5.93039673	    -55.49324320	      0.12992686	     15.89335744	      5.31363005	      4.75460222	      0.34375740
      4.22000000	     -3.95196594	    -10.02180006	     59.13353116	      0.68512311	      0.97036901	      0.09871032	     31.35961043	      4.43738210	      2.13762668	    -29.88328059	     12.79123645	     -6.13480409	     15.62466439	     -0.64261744	      5.30578152	    -56.44836997	      0.51572063	     16.49348213	      5.35808790	      4.92500822	      0.48705027
      4.23000000	     -3.81810887	    -10.17426594	     59.39288320	      0.68862582	      0.97086888	      0.09584293	     30.99685803	      4.66071408	      1.99934455	    -29.61456753	     12.97414241	     -6.22749941	     16.42297882	     -1.18244177	      4.69271613	    -57.26617656	      1.17040371	     16.65518940	      5.36764960	      5.08190774	      0.64126013
      4.24000000	     -3.70244285	    -10.32127524	     59.66411018	      0.69193858	      0.97134107	      0.09306202	     30.66693874	      4.84825416	      1.82466196	    -29.37204405	     13.13110723	     -6.33755914	     17.22246744	     -1.66398814	      4.14960422	    -57.96476694	      2.01263011	     16.71585272	      5.37356993	      5.21832956	      0.79762852
      4.25000000	     -3.60195771	    -10.45808110	     59.93260706	      0.69509145	      0.97180847	      0.09035915	     30.35106875	      5.01226323	      1.65552583	    -29.13521596	     13.26683521	     -6.45339937	     18.00782243	     -2.08879844	      3.65748457	    -58.53077978	      3.00206711	     16.63967498	      5.36872509	      5.33964582	      0.94992518
